<?xml version="1.0" encoding="utf-8"?>
<!-- Generator: Adobe Illustrator 27.9.0, SVG Export Plug-In . SVG Version: 6.00 Build 0)  -->
<svg version="1.1" id="Glyph" xmlns="http://www.w3.org/2000/svg" xmlns:xlink="http://www.w3.org/1999/xlink" x="0px" y="0px"
	 viewBox="0 0 48 48" enable-background="new 0 0 48 48" xml:space="preserve">
<g>
	<path d="M42.24219,11.53027l-6-1.5c-0.1582-0.04102-0.32617-0.04102-0.48438,0l-6,1.5C29.31249,11.6416,29,12.04102,29,12.5
		v4.41699c0,4.01562,2.875,7.40918,6.83594,8.06934C35.88965,24.99512,35.94531,25,36,25s0.11035-0.00488,0.16406-0.01367
		C40.125,24.32617,43,20.93262,43,16.91699V12.5C43,12.04102,42.68749,11.6416,42.24219,11.53027z M38.95703,16.45728l-3,3
		c-0.3833,0.3833-1.05334,0.36072-1.41406-0.00006c-0.00677-0.00671-1.5-1.49994-1.5-1.49994
		c-0.39062-0.39062-0.39062-1.02344,0-1.41406s1.02344-0.39062,1.41406,0L35.25,17.33618l2.29297-2.29297
		c0.39062-0.39062,1.02344-0.39062,1.41406,0S39.34766,16.06665,38.95703,16.45728z"/>
	<rect x="11" y="25" width="6" height="2"/>
	<path d="M36,27c-0.15997,0-0.33002-0.01001-0.48999-0.04004c-3.87-0.63995-6.91003-3.38995-8.04004-6.95996H5v17
		c0,0.54999,0.45001,1,1,1h34c0.54999,0,1-0.45001,1-1V25.01001c-1.28003,0.97998-2.81,1.66998-4.51001,1.94995
		C36.33002,26.98999,36.15997,27,36,27z M11,34c0,0.54999-0.45001,1-1,1s-1-0.45001-1-1v-2c0-0.54999,0.45001-1,1-1s1,0.45001,1,1
		V34z M15,34c0,0.54999-0.45001,1-1,1s-1-0.45001-1-1v-2c0-0.54999,0.45001-1,1-1s1,0.45001,1,1V34z M19,34c0,0.54999-0.45001,1-1,1
		s-1-0.45001-1-1v-2c0-0.54999,0.45001-1,1-1s1,0.45001,1,1V34z M19,28c0,0.54999-0.45001,1-1,1h-8c-0.54999,0-1-0.45001-1-1v-4
		c0-0.54999,0.45001-1,1-1h8c0.54999,0,1,0.45001,1,1V28z M24,34c0,0.54999-0.45001,1-1,1s-1-0.45001-1-1v-2
		c0-0.54999,0.45001-1,1-1s1,0.45001,1,1V34z M28,34c0,0.54999-0.45001,1-1,1s-1-0.45001-1-1v-2c0-0.54999,0.45001-1,1-1
		s1,0.45001,1,1V34z M32,34c0,0.54999-0.45001,1-1,1s-1-0.45001-1-1v-2c0-0.54999,0.45001-1,1-1s1,0.45001,1,1V34z M37,32v2
		c0,0.54999-0.45001,1-1,1s-1-0.45001-1-1v-2c0-0.54999,0.45001-1,1-1S37,31.45001,37,32z"/>
	<path d="M27,16.91998V14H6c-0.54999,0-1,0.45001-1,1v3h22.06C27.02002,17.64001,27,17.27997,27,16.91998z"/>
</g>
</svg>
