<?xml version="1.0" encoding="utf-8"?>
<!-- Generator: Adobe Illustrator 16.0.0, SVG Export Plug-In . SVG Version: 6.00 Build 0)  -->
<!DOCTYPE svg PUBLIC "-//W3C//DTD SVG 1.0//EN" "http://www.w3.org/TR/2001/REC-SVG-20010904/DTD/svg10.dtd">
<svg version="1.0" id="Layer_1" xmlns="http://www.w3.org/2000/svg" xmlns:xlink="http://www.w3.org/1999/xlink" x="0px" y="0px"
	 width="100px" height="100px" viewBox="0 0 100 100" enable-background="new 0 0 100 100" xml:space="preserve">
<polygon points="73.542,36.667 66.263,16.667 60,18.945 66.448,36.667 33.548,36.667 40,18.945 33.737,16.667 26.455,36.667 
	10,36.667 10,43.334 90,43.334 90,36.667 "/>
<path d="M17.5,48.334l4.736,28.424c0.602,3.616,4.095,6.575,7.764,6.575h40c3.665,0,7.161-2.959,7.764-6.575L82.5,48.334H17.5z
	 M38.333,75h-6.667V55h6.667V75z M53.333,75h-6.667V55h6.667V75z M68.333,75h-6.666V55h6.666V75z"/>
</svg>
